<svg width="1390" height="724" viewBox="0 0 1390 724" fill="none" xmlns="http://www.w3.org/2000/svg">
<g clip-path="url(#clip0_42_52)">
<path d="M1376.5 504.027H1028.5C1021.06 504.027 1015 498.155 1015 490.938V450.321H1390V490.938C1390 498.155 1383.95 504.027 1376.5 504.027Z" fill="#E6E6E6"/>
<path d="M1247.54 497.233H1158.79V558.703H1247.54V497.233Z" fill="#E6E6E6"/>
<path d="M1252.88 550.938H1153.46V558.703H1252.88V550.938Z" fill="#E6E6E6"/>
<path d="M1389.67 467.468H1015V260.982C1015 256.03 1019.16 252 1024.26 252H1380.4C1385.51 252 1389.67 256.03 1389.67 260.982V467.468Z" fill="#3F3D56"/>
<path d="M1380.66 261.382H1023.67V456.145H1380.66V261.382Z" fill="white"/>
<path d="M1092.81 377.466C1095.54 375.277 1098.92 374.869 1100.36 376.556C1101.79 378.242 1100.74 381.383 1098.01 383.573C1096.93 384.462 1095.65 385.088 1094.27 385.397L1082.57 394.532L1078.27 389.117L1090.25 380.687C1090.83 379.431 1091.7 378.326 1092.81 377.466Z" fill="#FFB6B6"/>
<path d="M1025.2 398.075C1025.19 397.671 1025.2 394.148 1027.89 391.921C1030.98 389.362 1035.34 390.398 1036.87 390.761C1040.4 391.6 1040.69 393.07 1044.01 394.58C1050.21 397.405 1042.44 395.959 1046.13 395.053C1047.41 394.739 1065.8 393.502 1070.38 390.77C1079.28 385.455 1085.35 382.233 1085.35 382.233L1089.32 389.925C1089.32 389.925 1083.58 397.658 1075.51 403.387C1067.23 409.263 1063.09 412.201 1056.8 413.336C1056.26 413.434 1042.93 415.64 1032.2 407.865C1029.75 406.092 1025.27 402.842 1025.2 398.075Z" fill="#6D28D9"/>
<path d="M1037.5 378.513C1045.13 378.513 1051.32 372.514 1051.32 365.115C1051.32 357.715 1045.13 351.716 1037.5 351.716C1029.87 351.716 1023.68 357.715 1023.68 365.115C1023.68 372.514 1029.87 378.513 1037.5 378.513Z" fill="#FFB6B6"/>
<path d="M1145.71 455.128L1131.48 441.004L1124.13 448.434L1134.73 461.976L1145.25 463.143L1145.71 455.128Z" fill="#FFB6B6"/>
<path d="M1064.46 428.642C1065.29 428.709 1067.94 429.223 1070.46 427.875C1072.19 426.954 1073.07 425.586 1073.37 425.15C1077.08 419.751 1091.31 411.331 1104.08 410.813C1106.97 410.695 1108.88 411.02 1110.61 411.895C1113.06 413.135 1114.04 414.911 1117.15 419.073C1118.86 421.349 1120.74 423.494 1122.46 425.756C1132.55 438.998 1136.38 440.037 1135.99 444.282C1135.56 448.993 1130.32 453.461 1126.83 452.946C1125.41 452.734 1124.86 451.773 1122.95 449.826C1117.37 444.12 1115.06 445.174 1111.08 440.803C1106.44 435.699 1107.04 431.468 1104.62 431.304C1102.37 431.153 1101.42 434.763 1096.62 439.558C1094.43 441.752 1092.87 442.759 1088.11 445.962C1069.57 458.434 1069.27 459.311 1065.53 460.305C1063.89 460.74 1052.27 463.829 1048.13 458.914C1041.66 451.221 1056.96 428.038 1064.46 428.642Z" fill="#2F2E41"/>
<path d="M1141.36 458.32C1142.4 457.864 1143.63 457.331 1144.02 456.106C1144.29 455.277 1144.13 454.255 1143.58 453.548C1142.95 452.733 1142.01 452.626 1142.05 452.482C1142.1 452.262 1144.33 452.348 1146.77 453.185C1147.23 453.343 1149.32 454.082 1151.97 456.092C1154.1 457.702 1153.81 458.024 1155.14 458.953C1159.24 461.803 1163.08 459.557 1165.29 462.229C1166.15 463.261 1166.51 464.725 1166.15 465.909C1165.43 468.287 1161.92 469.105 1160 469.528C1155.37 470.545 1151.87 469.715 1148.22 469.117C1135.78 467.086 1128.8 468.936 1127.87 466.144C1127.69 465.615 1127.98 465.66 1128.93 461.781C1129.88 457.953 1129.85 456.902 1130.66 456.595C1131.87 456.134 1132.68 458.233 1135.74 458.951C1138.44 459.588 1140.68 458.615 1141.36 458.32Z" fill="#2F2E41"/>
<path d="M1120.41 501.333L1116.81 481.898L1106.43 484.046L1107.36 501.025L1115.39 507.716L1120.41 501.333Z" fill="#FFB6B6"/>
<path d="M1068.52 435.175C1069.17 435.684 1071.06 437.549 1073.93 437.81C1075.89 437.987 1077.42 437.337 1077.92 437.139C1084.11 434.69 1100.76 435.472 1111.63 441.997C1114.09 443.475 1115.48 444.781 1116.4 446.447C1117.71 448.809 1117.5 450.812 1117.66 455.951C1117.75 458.762 1118.07 461.563 1118.19 464.373C1118.87 480.824 1121.43 483.768 1118.65 487.067C1115.56 490.729 1108.64 491.574 1106.06 489.251C1105 488.3 1105.1 487.204 1104.65 484.556C1103.33 476.792 1100.81 476.406 1100.05 470.624C1099.17 463.872 1102.12 460.702 1100.21 459.248C1098.44 457.899 1095.56 460.366 1088.81 461.723C1085.73 462.343 1083.85 462.325 1078.06 462.383C1055.49 462.608 1054.74 463.172 1051.07 461.958C1049.46 461.427 1038.06 457.656 1037.48 451.335C1036.58 441.443 1062.66 430.592 1068.52 435.175Z" fill="#2F2E41"/>
<path d="M1114.96 501.606C1116.09 501.798 1117.41 502.024 1118.45 501.224C1119.15 500.683 1119.61 499.754 1119.57 498.87C1119.51 497.849 1118.8 497.248 1118.91 497.15C1119.09 497 1120.88 498.281 1122.41 500.303C1122.7 500.684 1124 502.433 1125.03 505.541C1125.86 508.031 1125.44 508.142 1126 509.637C1127.74 514.224 1132.22 514.456 1132.5 517.874C1132.61 519.193 1132.07 520.603 1131.08 521.387C1129.11 522.961 1125.73 521.725 1123.89 521.029C1119.48 519.353 1117.06 516.759 1114.38 514.275C1105.28 505.825 1098.42 503.553 1099.27 500.733C1099.43 500.199 1099.64 500.393 1102.68 497.706C1105.68 495.053 1106.26 494.166 1107.11 494.351C1108.38 494.63 1107.83 496.81 1109.95 499.068C1111.82 501.069 1114.23 501.481 1114.96 501.606Z" fill="#2F2E41"/>
<path d="M1039.38 367.676C1039.92 365.81 1039.25 365.13 1039.94 364.293C1039.94 364.293 1040.21 363.956 1042.69 363.046C1041.96 358.934 1042.51 358.238 1042.51 358.238C1043.14 357.437 1044.4 357.243 1045.26 357.348C1047.08 357.57 1047.4 359.164 1048.57 359.129C1050.17 359.079 1052.1 355.958 1051.5 353.252C1051.02 351.046 1048.91 349.407 1048.38 349.691C1047.86 349.973 1045.98 348.73 1045.26 348.979C1044.77 349.149 1042.48 348.923 1041.96 349.157C1041.39 349.413 1039.76 351.006 1039.6 350.805C1038.52 349.41 1038.54 348.923 1037.92 348.623C1036.8 348.09 1035.59 349.075 1033.51 350.047C1029.22 352.049 1027.96 350.855 1025.98 352.54C1024.98 353.392 1024.44 355.019 1023.41 358.238C1021.96 362.741 1021.24 364.992 1021.94 367.142C1022.65 369.334 1023.7 368.857 1025.25 371.95C1026.97 375.392 1026.37 377.393 1028 378.182C1029.26 378.791 1031.28 378.403 1032.04 377.292C1033.35 375.388 1029.97 372.813 1031.12 369.813C1031.83 367.971 1034.01 366.575 1035.34 366.964C1036.86 367.403 1036.97 370.031 1037.92 369.991C1038.73 369.956 1039.29 368.001 1039.38 367.676Z" fill="#2F2E41"/>
<path d="M1028.92 380.497C1031.75 377.423 1043.26 380.604 1044.34 385.483C1044.79 387.489 1043.15 388.336 1043.61 390.647C1044.28 394.026 1048.11 393.795 1050.95 397.235C1054.99 402.118 1050.83 406.892 1055.36 415.042C1056.33 416.783 1057.14 418.251 1058.85 419.671C1062.76 422.931 1066.41 421.813 1068.4 424.835C1069.89 427.095 1069.28 429.881 1069.13 430.534C1068.54 433.209 1066.95 433.861 1065.83 436.054C1063.96 439.701 1066.07 442.379 1066.19 446.738C1066.34 452.191 1063.36 459.749 1057.38 462.229C1050.67 465.016 1042.57 460.401 1038.65 455.819C1036.31 453.085 1035.63 450.563 1034.61 447.45C1030.04 433.537 1027.46 434.796 1023.96 423.767C1019.96 411.159 1019.18 396.389 1023.96 391.715C1024.59 391.095 1026.34 389.664 1027.45 387.085C1028.94 383.616 1027.65 381.873 1028.92 380.497Z" fill="#6D28D9"/>
<path d="M1070.69 452.058C1072.89 454.759 1073.23 458.045 1071.45 459.398C1069.68 460.75 1066.47 459.657 1064.28 456.955C1063.38 455.887 1062.77 454.628 1062.48 453.283L1053.34 441.726L1058.07 438.233L1067.43 449.505C1068.72 450.092 1069.83 450.967 1070.69 452.058Z" fill="#FFB6B6"/>
<path d="M1037.23 392.212C1037.63 392.124 1041.19 391.409 1043.99 393.508C1047.2 395.92 1047.04 400.271 1046.99 401.797C1046.86 405.322 1045.44 405.897 1044.59 409.355C1043.01 415.824 1046.03 421.836 1047.69 425.157C1048.27 426.307 1050.13 429.825 1053.82 433.613C1061 440.982 1067.41 444.859 1067.41 444.859L1060.53 450.793C1060.53 450.793 1049.56 447.552 1042.13 441.059C1034.51 434.398 1022.79 410.83 1020.36 405.089C1020.15 404.595 1023.11 412.633 1028.77 400.858C1030.06 398.172 1032.43 393.251 1037.23 392.212Z" fill="#6D28D9"/>
<path d="M1213.42 386.684L1205.2 382.909C1208.57 387.471 1211.48 394.597 1213.03 400.267C1215.66 394.985 1219.91 388.523 1224.11 384.662L1215.42 386.829C1220.78 361.389 1240.91 343.125 1263.97 343.125L1264.29 342.206C1240.21 342.206 1218.89 360.217 1213.42 386.684Z" fill="#3F3D56"/>
<path d="M1251.25 425.448H1199.32C1197.11 425.448 1195.32 423.71 1195.32 421.574C1195.32 419.438 1197.11 417.7 1199.32 417.7H1251.25C1253.45 417.7 1255.25 419.438 1255.25 421.574C1255.25 423.71 1253.45 425.448 1251.25 425.448Z" fill="#6D28D9"/>
<path d="M1320.36 425.448H1268.42C1266.22 425.448 1264.43 423.71 1264.43 421.574C1264.43 419.438 1266.22 417.7 1268.42 417.7H1320.36C1322.56 417.7 1324.35 419.438 1324.35 421.574C1324.35 423.71 1322.56 425.448 1320.36 425.448Z" fill="#E6E6E6"/>
<path d="M1289.61 320.059H1239.13C1237.86 320.059 1236.82 319.055 1236.82 317.821C1236.82 316.587 1237.86 315.583 1239.13 315.583H1289.61C1290.88 315.583 1291.92 316.587 1291.92 317.821C1291.92 319.055 1290.88 320.059 1289.61 320.059Z" fill="#3F3D56"/>
<path d="M1316.7 343.939H1212.04C1210.77 343.939 1209.73 342.935 1209.73 341.7C1209.73 340.466 1210.77 339.463 1212.04 339.463H1316.7C1317.97 339.463 1319.01 340.466 1319.01 341.7C1319.01 342.935 1317.97 343.939 1316.7 343.939Z" fill="#3F3D56"/>
<path d="M1037.69 559.275C1037.69 559.677 1038.03 560 1038.44 560H1366.56C1366.97 560 1367.31 559.677 1367.31 559.275C1367.31 558.873 1366.97 558.55 1366.56 558.55H1038.44C1038.03 558.55 1037.69 558.873 1037.69 559.275Z" fill="#3F3D56"/>
<path d="M1118.26 387.425C1118.17 387.425 1118.08 387.422 1117.99 387.416C1112.74 387.089 1094.75 384.62 1084.01 366.613C1083.12 365.13 1083.3 363.245 1084.44 361.923L1104.33 338.943C1105.14 338.003 1106.4 337.461 1107.67 337.476C1108.55 337.497 1110.64 337.712 1111.04 339.269C1113.43 348.466 1123.52 359.279 1135.65 360.713C1136.88 360.858 1137.87 361.922 1138.29 363.559C1138.62 364.833 1138.32 366.147 1137.45 367.163L1121.52 385.925C1120.71 386.878 1119.52 387.425 1118.26 387.425ZM1107.6 338.401C1106.62 338.401 1105.68 338.823 1105.06 339.537L1085.17 362.517C1084.28 363.543 1084.15 365.003 1084.83 366.15C1095.34 383.76 1112.92 386.173 1118.06 386.493C1119.11 386.561 1120.11 386.128 1120.78 385.337L1136.72 366.575C1137.39 365.788 1137.62 364.771 1137.37 363.784C1137.12 362.818 1136.51 361.745 1135.54 361.63C1123 360.15 1112.58 348.988 1110.11 339.495C1109.91 338.726 1108.71 338.426 1107.65 338.401C1107.63 338.401 1107.62 338.401 1107.6 338.401Z" fill="#3F3D56"/>
<path d="M1096.06 367.369L1110.4 353.191C1111.38 352.222 1109.84 350.73 1108.86 351.701L1094.52 365.879C1093.54 366.848 1095.08 368.34 1096.06 367.369Z" fill="#E6E6E6"/>
<path d="M1104.72 371.364C1108.67 367.924 1112.11 363.941 1114.93 359.571C1115.67 358.417 1113.79 357.358 1113.05 358.507C1110.33 362.732 1107 366.548 1103.18 369.873C1102.13 370.781 1103.68 372.267 1104.72 371.364Z" fill="#E6E6E6"/>
<path d="M1112.52 376.147C1116.12 372.276 1119.19 367.956 1121.6 363.297C1122.23 362.088 1120.35 361.019 1119.72 362.233C1117.39 366.735 1114.46 370.916 1110.98 374.656C1110.04 375.661 1111.58 377.156 1112.52 376.147Z" fill="#E6E6E6"/>
<path d="M1106.37 350.622C1114.36 350.622 1120.83 344.477 1120.83 336.897C1120.83 329.318 1114.36 323.173 1106.37 323.173C1098.39 323.173 1091.92 329.318 1091.92 336.897C1091.92 344.477 1098.39 350.622 1106.37 350.622Z" fill="#6D28D9"/>
<path d="M1113.89 343.408C1111.67 338.106 1109.45 332.805 1107.22 327.504C1106.92 326.772 1105.96 326.746 1105.66 327.504C1103.46 333.062 1102.02 338.861 1101.33 344.774C1101.22 345.781 1102.84 345.773 1102.96 344.774C1103.23 342.46 1103.63 340.164 1104.15 337.892C1105.98 337.985 1107.82 337.786 1109.59 337.311C1110.5 339.483 1111.42 341.655 1112.33 343.827C1112.72 344.755 1114.29 344.349 1113.89 343.408ZM1104.51 336.332C1105.06 334.157 1105.72 332.008 1106.48 329.893L1108.98 335.838C1107.51 336.209 1106.02 336.375 1104.51 336.332Z" fill="white"/>
</g>
<g filter="url(#filter0_f_42_52)">
<ellipse cx="245.5" cy="410.5" rx="64.5" ry="63.5" fill="black"/>
</g>
<g filter="url(#filter1_f_42_52)">
<ellipse cx="699.5" cy="261.5" rx="64.5" ry="63.5" fill="#6D28D9"/>
</g>
<defs>
<filter id="filter0_f_42_52" x="-69" y="97" width="629" height="627" filterUnits="userSpaceOnUse" color-interpolation-filters="sRGB">
<feFlood flood-opacity="0" result="BackgroundImageFix"/>
<feBlend mode="normal" in="SourceGraphic" in2="BackgroundImageFix" result="shape"/>
<feGaussianBlur stdDeviation="125" result="effect1_foregroundBlur_42_52"/>
</filter>
<filter id="filter1_f_42_52" x="435" y="-2" width="529" height="527" filterUnits="userSpaceOnUse" color-interpolation-filters="sRGB">
<feFlood flood-opacity="0" result="BackgroundImageFix"/>
<feBlend mode="normal" in="SourceGraphic" in2="BackgroundImageFix" result="shape"/>
<feGaussianBlur stdDeviation="100" result="effect1_foregroundBlur_42_52"/>
</filter>
<clipPath id="clip0_42_52">
<rect width="375" height="308" fill="white" transform="translate(1015 252)"/>
</clipPath>
</defs>
</svg>
