<svg width="314" height="288" viewBox="0 0 314 288" fill="none" xmlns="http://www.w3.org/2000/svg">
<circle cx="98.2709" cy="189.271" r="71" transform="rotate(146.846 98.2709 189.271)" fill="#7A39E8"/>
<circle cx="242.027" cy="91.0288" r="71" transform="rotate(-179.976 242.027 91.0288)" fill="#7A39E8"/>
<path d="M168.374 25.3976C156.977 22.9117 144.768 22.9975 132.766 25.648C120.764 28.2986 109.316 33.4369 99.3766 40.635C89.4367 47.8331 81.2928 56.8824 75.6235 67.0288C69.9542 77.1751 66.9237 88.1248 66.7845 98.9651L142.75 91.9754L168.374 25.3976Z" fill="#7A39E8"/>
<g clip-path="url(#clip0_542_80)">
<path d="M269.562 277.425L263.845 277.424L261.125 255.078L269.563 255.079L269.562 277.425Z" fill="#FFB6B6"/>
<path d="M269.763 283.468L252.183 283.468V283.242C252.183 279.413 255.246 276.309 259.025 276.308L262.237 273.84L268.229 276.309L269.763 276.309L269.763 283.468Z" fill="#2F2E41"/>
<path d="M244.217 277.425L238.5 277.424L235.78 255.078L244.218 255.079L244.217 277.425Z" fill="#FFB6B6"/>
<path d="M244.418 283.468L226.838 283.468V283.242C226.838 279.413 229.901 276.309 233.68 276.308L236.892 273.84L242.884 276.309L244.418 276.309L244.418 283.468Z" fill="#2F2E41"/>
<path d="M241.493 152.718L274.476 153.422C274.476 153.422 280.405 163.273 275.878 177.17L276.385 181.04L274.302 187.021L273.26 205.317L274.302 208.131L273.608 213.409C273.608 213.409 276.385 248.24 269.441 265.832L261.109 265.48L257.984 219.583L259.72 216.224L259.373 214.816L255.207 193.706L251.04 204.613V210.673L247.221 215.168C247.221 215.168 248.61 256.684 244.791 265.128H235.462L231.945 208.835L235.417 176.115L234.722 174.004L235.764 172.948L235.07 169.43L241.493 152.718Z" fill="#2F2E41"/>
<path d="M255.554 88.5085L265.622 86.0457L268.4 92.7305C268.4 92.7305 282.77 100.471 283.465 111.026C283.465 111.026 285.412 119.47 283.676 123.34C281.94 127.21 274.649 139.524 274.649 139.524C274.649 139.524 281.246 160.986 279.51 162.041C277.774 163.097 236.458 160.986 236.458 158.875C236.458 156.764 243.334 134.598 243.334 134.598L244.791 96.6006L254.165 93.0823L255.554 88.5085Z" fill="#3F3D56"/>
<path d="M282.396 175.117C280.289 174.041 279.441 171.438 280.503 169.302C280.61 169.087 280.736 168.889 280.871 168.7L275.268 129.775L283.025 130.026L287.082 167.953C288.553 169.217 289.04 171.377 288.134 173.199C287.072 175.334 284.503 176.193 282.396 175.117Z" fill="#FFB6B6"/>
<path d="M208.798 156.746C207.95 154.514 209.047 152.008 211.249 151.148C211.471 151.062 211.695 151.001 211.92 150.953L233.564 118.297L239.145 123.762L217.018 154.626C217.27 156.564 216.201 158.496 214.322 159.229C212.12 160.089 209.647 158.977 208.798 156.746Z" fill="#FFB6B6"/>
<path d="M268.262 119.957C266.071 112.327 269.71 104.543 277.552 104.58C279.818 104.591 281.579 105.258 282.067 107.103C283.775 113.559 284.707 123.306 284.707 123.306L286.733 133.683L285.505 135.838L288.064 142.792L286.823 146.082L286.555 162.883L280.305 162.532L273.419 149.723L270.786 148.137C270.786 148.137 272.901 127.428 268.695 121.465L268.262 119.957Z" fill="#3F3D56"/>
<path d="M240.269 101.18C243.924 94.1492 253.279 92.4838 258.893 98.0313C260.516 99.6347 261.326 101.354 260.412 103.024C257.214 108.871 249.801 115.166 249.801 115.166L240.673 130.038L238.313 130.724L235.386 137.527L229.113 145.001L220.804 149.441L215.943 144.515L216.976 138.184L229.484 121.294C229.484 121.294 238.484 109.819 239.547 102.57L240.269 101.18Z" fill="#3F3D56"/>
<path d="M257.467 86.4522C257.697 86.4802 257.926 86.5012 258.154 86.5117C258.864 86.5512 259.565 86.5102 260.24 86.3941C262.293 86.0607 264.158 85.0754 265.597 83.6305C267.118 82.1059 268.159 80.071 268.441 77.7544C269.1 72.2862 265.258 67.305 259.862 66.6368C254.543 65.9744 249.695 69.7441 248.921 75.0868C248.909 75.1695 248.896 75.2488 248.887 75.3311C248.228 80.8028 252.067 85.7809 257.467 86.4522Z" fill="#FFB6B6"/>
<path d="M246.702 74.7208C248.1 75.4213 250.384 73.2191 251.258 74.4861C251.4 74.2123 251.557 73.9475 251.712 73.6971C251.853 73.473 252.053 72.9946 252.286 72.9127C251.992 73.6312 252.057 74.6043 252.362 75.4381C253.74 75.9602 255.545 74.8045 256.822 73.4375C258.825 71.2942 262.097 76.7904 261.324 79.6348C262.308 78.4164 264.445 79.1036 265.169 80.4968C265.893 81.8864 264.67 82.9999 264.408 84.55L266.382 84.296C267.628 83.0668 267.541 80.9956 268.566 79.571C270.279 77.1869 270.943 74.7543 269.655 72.2937C268.513 70.1181 268.406 67.3024 266.311 66.0481C267.226 65.5945 263.97 66.3032 264.84 64.8248C265.713 63.3495 261.057 63.1705 260.753 63.9608C259.423 62.3471 258.081 61.2832 256.444 62.5762C254.837 63.8484 255.003 65.1855 253.115 65.0657C252.229 65.0101 252.327 66.6838 251.8 67.4136C251.276 68.1394 249.241 68.6054 249.142 68.5277C248.604 68.1015 246.776 71.7297 246.776 71.7297C246.776 71.7297 245.293 74.0109 246.702 74.7208Z" fill="#2F2E41"/>
<path d="M123.504 138.047C156.578 138.047 183.391 165.218 183.391 198.735C183.391 232.252 156.578 259.423 123.504 259.423C90.4287 259.423 44.6543 226.192 63.6162 198.735C82.5781 171.278 90.4287 138.047 123.504 138.047Z" fill="#F2F2F2"/>
<path d="M203.658 140.934C203.121 140.934 202.685 141.377 202.685 141.921V173.498C202.685 174.043 203.121 174.485 203.658 174.485C204.196 174.485 204.632 174.043 204.632 173.498V141.921C204.632 141.377 204.196 140.934 203.658 140.934Z" fill="#3F3D56"/>
<path d="M40.0636 117.251C39.5266 117.251 39.0898 117.693 39.0898 118.238V126.132C39.0898 126.676 39.5266 127.119 40.0636 127.119C40.6007 127.119 41.0374 126.676 41.0374 126.132V118.238C41.0374 117.693 40.6007 117.251 40.0636 117.251Z" fill="#3F3D56"/>
<path d="M40.0636 140.934C39.5266 140.934 39.0898 141.377 39.0898 141.921V157.216C39.0898 157.76 39.5266 158.203 40.0636 158.203C40.6007 158.203 41.0374 157.76 41.0374 157.216V141.921C41.0374 141.377 40.6007 140.934 40.0636 140.934Z" fill="#3F3D56"/>
<path d="M40.0636 162.644C39.5266 162.644 39.0898 163.086 39.0898 163.63V178.926C39.0898 179.47 39.5266 179.912 40.0636 179.912C40.6007 179.912 41.0374 179.47 41.0374 178.926V163.63C41.0374 163.086 40.6007 162.644 40.0636 162.644Z" fill="#3F3D56"/>
<path d="M127.399 86.1668C126.862 86.1668 126.425 86.6094 126.425 87.1536V102.449C126.425 102.993 126.862 103.436 127.399 103.436C127.936 103.436 128.372 102.993 128.372 102.449V87.1536C128.372 86.6094 127.936 86.1668 127.399 86.1668Z" fill="#3F3D56"/>
<path d="M276.58 275.447C277.585 275.511 278.141 274.245 277.38 273.507L277.305 273.202C277.315 273.177 277.325 273.153 277.335 273.128C278.352 270.67 281.799 270.687 282.808 273.149C283.703 275.334 284.843 277.522 285.124 279.833C285.249 280.852 285.193 281.891 284.969 282.892C287.067 278.249 288.171 273.179 288.171 268.08C288.171 266.799 288.102 265.517 287.96 264.24C287.844 263.194 287.683 262.155 287.476 261.126C286.353 255.562 283.922 250.262 280.416 245.836C278.73 244.902 277.325 243.443 276.475 241.693C276.17 241.062 275.931 240.383 275.818 239.692C276.01 239.717 276.542 236.757 276.397 236.575C276.664 236.164 277.143 235.96 277.435 235.558C278.887 233.563 280.887 233.912 281.932 236.623C284.163 237.764 284.184 239.656 282.815 241.476C281.944 242.634 281.825 244.201 281.061 245.441C281.139 245.543 281.221 245.641 281.3 245.743C282.741 247.617 283.988 249.631 285.039 251.747C284.742 249.396 285.181 246.563 285.929 244.736C286.78 242.656 288.375 240.903 289.78 239.104C291.468 236.944 294.928 237.886 295.226 240.626C295.228 240.652 295.231 240.679 295.234 240.705C295.025 240.824 294.821 240.951 294.621 241.085C293.482 241.848 293.876 243.638 295.225 243.849L295.256 243.854C295.18 244.615 295.052 245.371 294.863 246.113C296.665 253.176 292.774 255.749 287.218 255.865C287.095 255.928 286.976 255.992 286.853 256.053C287.416 257.659 287.866 259.306 288.199 260.976C288.498 262.452 288.705 263.943 288.822 265.441C288.967 267.331 288.954 269.23 288.797 271.117L288.806 271.05C289.205 268.972 290.319 267.031 291.935 265.686C294.343 263.682 297.745 262.944 300.343 261.332C301.593 260.557 303.196 261.559 302.978 263.028L302.967 263.099C302.58 263.258 302.203 263.443 301.838 263.65C301.629 263.769 301.425 263.896 301.225 264.03C300.086 264.793 300.48 266.583 301.829 266.794L301.86 266.799C301.882 266.802 301.901 266.805 301.923 266.808C301.259 268.405 300.335 269.887 299.177 271.164C298.051 277.331 293.21 277.916 288.032 276.12H288.029C287.463 278.618 286.636 281.059 285.573 283.386H276.799C276.768 283.287 276.74 283.185 276.711 283.086C277.523 283.137 278.34 283.089 279.139 282.94C278.488 282.13 277.837 281.314 277.186 280.505C277.171 280.489 277.158 280.473 277.145 280.457C276.815 280.043 276.482 279.632 276.152 279.217L276.151 279.217C276.131 277.945 276.281 276.677 276.58 275.447Z" fill="#F2F2F2"/>
<path d="M27.9977 283.412C27.9977 283.738 28.2557 283.999 28.5771 283.999H302.35C302.671 283.999 302.929 283.738 302.929 283.412C302.929 283.087 302.671 282.825 302.35 282.825H28.5771C28.2557 282.825 27.9977 283.087 27.9977 283.412Z" fill="#CCCCCC"/>
<path d="M97.319 194.644H63.6162V193.657H97.319C100.247 193.657 102.629 191.243 102.629 188.276V165.184H103.602V188.276C103.602 191.787 100.784 194.644 97.319 194.644Z" fill="white"/>
<path d="M161.627 244.702H84.973V245.689H161.627V244.702Z" fill="white"/>
<path d="M210.261 188.046H169.318C167.108 188.046 165.311 186.224 165.311 183.985V143.001C165.311 140.762 167.108 138.94 169.318 138.94H210.261C212.471 138.94 214.268 140.762 214.268 143.001V183.985C214.268 186.224 212.471 188.046 210.261 188.046Z" fill="#E6E6E6"/>
<path d="M176.943 140.15C171.178 140.15 166.505 144.886 166.505 150.727V183.116C166.505 185.17 168.148 186.836 170.176 186.836H195.212C205.077 186.836 213.074 178.732 213.074 168.734V143.87C213.074 141.815 211.431 140.15 209.403 140.15L176.943 140.15Z" fill="white"/>
<path d="M200.755 152.06H178.738C178.318 152.06 177.976 151.714 177.976 151.288C177.976 150.862 178.318 150.516 178.738 150.516H200.755C201.175 150.516 201.517 150.862 201.517 151.288C201.517 151.714 201.175 152.06 200.755 152.06Z" fill="#E6E6E6"/>
<path d="M200.755 168.522H178.738C178.318 168.522 177.976 168.175 177.976 167.75C177.976 167.324 178.318 166.978 178.738 166.978H200.755C201.175 166.978 201.517 167.324 201.517 167.75C201.517 168.175 201.175 168.522 200.755 168.522Z" fill="#E6E6E6"/>
<path d="M209.696 160.296H169.797C169.377 160.296 169.035 159.95 169.035 159.524C169.035 159.099 169.377 158.752 169.797 158.752H209.696C210.116 158.752 210.458 159.099 210.458 159.524C210.458 159.95 210.116 160.296 209.696 160.296Z" fill="#E6E6E6"/>
<path d="M210.104 175.215H195.69C195.27 175.215 194.928 174.869 194.928 174.443C194.928 174.017 195.27 173.671 195.69 173.671H210.104C210.524 173.671 210.865 174.017 210.865 174.443C210.865 174.869 210.524 175.215 210.104 175.215Z" fill="#E6E6E6"/>
<path d="M124.261 269.705H91.7494C89.9949 269.705 88.5675 268.259 88.5675 266.481V233.936C88.5675 232.158 89.9949 230.712 91.7494 230.712H124.261C126.016 230.712 127.443 232.158 127.443 233.936V266.481C127.443 268.259 126.016 269.705 124.261 269.705Z" fill="#E6E6E6"/>
<path d="M97.8041 231.673C93.2264 231.673 89.5155 235.433 89.5155 240.072V265.79C89.5155 267.422 90.8207 268.745 92.4307 268.745H112.311C120.145 268.745 126.495 262.309 126.495 254.371V234.627C126.495 232.995 125.19 231.673 123.58 231.673L97.8041 231.673Z" fill="white"/>
<path d="M116.713 241.13H99.2296C98.896 241.13 98.6246 240.855 98.6246 240.517C98.6246 240.179 98.896 239.904 99.2296 239.904H116.713C117.046 239.904 117.318 240.179 117.318 240.517C117.318 240.855 117.046 241.13 116.713 241.13Z" fill="#E6E6E6"/>
<path d="M116.713 254.202H99.2296C98.896 254.202 98.6246 253.927 98.6246 253.589C98.6246 253.251 98.896 252.976 99.2296 252.976H116.713C117.046 252.976 117.318 253.251 117.318 253.589C117.318 253.927 117.046 254.202 116.713 254.202Z" fill="#E6E6E6"/>
<path d="M123.813 247.67H92.13C91.7964 247.67 91.525 247.395 91.525 247.057C91.525 246.719 91.7964 246.444 92.13 246.444H123.813C124.146 246.444 124.417 246.719 124.417 247.057C124.417 247.395 124.146 247.67 123.813 247.67Z" fill="#E6E6E6"/>
<path d="M124.136 259.517H112.691C112.357 259.517 112.086 259.242 112.086 258.904C112.086 258.566 112.357 258.291 112.691 258.291H124.136C124.469 258.291 124.741 258.566 124.741 258.904C124.741 259.242 124.469 259.517 124.136 259.517Z" fill="#E6E6E6"/>
<path d="M101.537 164.935H77.4935C76.196 164.935 75.1404 163.865 75.1404 162.55V138.482C75.1404 137.167 76.196 136.098 77.4935 136.098H101.537C102.835 136.098 103.891 137.167 103.891 138.482V162.55C103.891 163.865 102.835 164.935 101.537 164.935Z" fill="#E6E6E6"/>
<path d="M81.9713 136.808C78.5859 136.808 75.8416 139.589 75.8416 143.02V162.04C75.8416 163.246 76.8068 164.224 77.9975 164.224H92.6997C98.4931 164.224 103.189 159.465 103.189 153.594V138.993C103.189 137.786 102.224 136.808 101.034 136.808L81.9713 136.808Z" fill="white"/>
<path d="M95.9552 143.802H83.0255C82.7788 143.802 82.5781 143.599 82.5781 143.349C82.5781 143.099 82.7788 142.896 83.0255 142.896H95.9552C96.2019 142.896 96.4025 143.099 96.4025 143.349C96.4025 143.599 96.2019 143.802 95.9552 143.802Z" fill="#E6E6E6"/>
<path d="M95.9552 153.469H83.0255C82.7788 153.469 82.5781 153.266 82.5781 153.016C82.5781 152.766 82.7788 152.563 83.0255 152.563H95.9552C96.2019 152.563 96.4025 152.766 96.4025 153.016C96.4025 153.266 96.2019 153.469 95.9552 153.469Z" fill="#E6E6E6"/>
<path d="M101.206 148.639H77.775C77.5284 148.639 77.3276 148.436 77.3276 148.186C77.3276 147.936 77.5284 147.732 77.775 147.732H101.206C101.452 147.732 101.653 147.936 101.653 148.186C101.653 148.436 101.452 148.639 101.206 148.639Z" fill="#E6E6E6"/>
<path d="M101.445 157.4H92.9805C92.7338 157.4 92.5331 157.197 92.5331 156.947C92.5331 156.697 92.7338 156.493 92.9805 156.493H101.445C101.692 156.493 101.892 156.697 101.892 156.947C101.892 157.197 101.692 157.4 101.445 157.4Z" fill="#E6E6E6"/>
<path d="M171.706 195.281C174.395 195.281 176.574 193.072 176.574 190.347C176.574 187.622 174.395 185.413 171.706 185.413C169.017 185.413 166.837 187.622 166.837 190.347C166.837 193.072 169.017 195.281 171.706 195.281Z" fill="white"/>
<path d="M103.054 170.118C105.743 170.118 107.923 167.909 107.923 165.184C107.923 162.459 105.743 160.25 103.054 160.25C100.365 160.25 98.1853 162.459 98.1853 165.184C98.1853 167.909 100.365 170.118 103.054 170.118Z" fill="white"/>
<path d="M126.425 237.713C129.114 237.713 131.294 235.504 131.294 232.78C131.294 230.055 129.114 227.846 126.425 227.846C123.736 227.846 121.556 230.055 121.556 232.78C121.556 235.504 123.736 237.713 126.425 237.713Z" fill="white"/>
<path d="M136.942 100.905C140.294 100.905 143.01 98.21 143.01 94.8854C143.01 91.5608 140.294 88.8656 136.942 88.8656C133.591 88.8656 130.874 91.5608 130.874 94.8854C130.874 98.21 133.591 100.905 136.942 100.905Z" fill="#F2F2F2"/>
<path d="M185.589 92.826H152.926C151.805 92.826 150.894 91.9021 150.894 90.7666C150.894 89.6311 151.805 88.7072 152.926 88.7072H185.589C186.709 88.7072 187.621 89.6311 187.621 90.7666C187.621 91.9021 186.709 92.826 185.589 92.826Z" fill="#F2F2F2"/>
<path d="M211.079 99.7963H152.926C151.805 99.7963 150.894 98.8724 150.894 97.7369C150.894 96.6014 151.805 95.6775 152.926 95.6775H211.079C212.2 95.6775 213.111 96.6014 213.111 97.7369C213.111 98.8724 212.2 99.7963 211.079 99.7963Z" fill="#F2F2F2"/>
<path d="M49.1088 126.205C51.2778 126.205 53.0361 124.461 53.0361 122.31C53.0361 120.158 51.2778 118.414 49.1088 118.414C46.9398 118.414 45.1815 120.158 45.1815 122.31C45.1815 124.461 46.9398 126.205 49.1088 126.205Z" fill="#F2F2F2"/>
<path d="M80.592 120.977H59.4531C58.7279 120.977 58.1378 120.379 58.1378 119.644C58.1378 118.909 58.7279 118.311 59.4531 118.311H80.592C81.3172 118.311 81.9073 118.909 81.9073 119.644C81.9073 120.379 81.3172 120.977 80.592 120.977Z" fill="#F2F2F2"/>
<path d="M97.0889 125.488H59.4531C58.7279 125.488 58.1378 124.89 58.1378 124.155C58.1378 123.42 58.7279 122.822 59.4531 122.822H97.0889C97.8141 122.822 98.4042 123.42 98.4042 124.155C98.4042 124.89 97.8141 125.488 97.0889 125.488Z" fill="#F2F2F2"/>
<path d="M166.936 264.85C169.105 264.85 170.863 263.106 170.863 260.954C170.863 258.803 169.105 257.059 166.936 257.059C164.767 257.059 163.009 258.803 163.009 260.954C163.009 263.106 164.767 264.85 166.936 264.85Z" fill="#F2F2F2"/>
<path d="M198.419 259.622H177.28C176.555 259.622 175.965 259.024 175.965 258.289C175.965 257.554 176.555 256.956 177.28 256.956H198.419C199.144 256.956 199.734 257.554 199.734 258.289C199.734 259.024 199.144 259.622 198.419 259.622Z" fill="#F2F2F2"/>
<path d="M214.916 264.133H177.28C176.555 264.133 175.965 263.535 175.965 262.8C175.965 262.065 176.555 261.467 177.28 261.467H214.916C215.641 261.467 216.231 262.065 216.231 262.8C216.231 263.535 215.641 264.133 214.916 264.133Z" fill="#F2F2F2"/>
<path d="M119.73 138.955H118.756V185.828H119.73V138.955Z" fill="#E6E6E6"/>
<path d="M119.243 188.788C120.857 188.788 122.165 187.463 122.165 185.828C122.165 184.193 120.857 182.867 119.243 182.867C117.63 182.867 116.322 184.193 116.322 185.828C116.322 187.463 117.63 188.788 119.243 188.788Z" fill="#E6E6E6"/>
<path d="M163.55 222.833C165.164 222.833 166.471 221.507 166.471 219.872C166.471 218.237 165.164 216.912 163.55 216.912C161.937 216.912 160.629 218.237 160.629 219.872C160.629 221.507 161.937 222.833 163.55 222.833Z" fill="#E6E6E6"/>
<path d="M84.674 182.374C86.2874 182.374 87.5954 181.048 87.5954 179.414C87.5954 177.779 86.2874 176.453 84.674 176.453C83.0606 176.453 81.7527 177.779 81.7527 179.414C81.7527 181.048 83.0606 182.374 84.674 182.374Z" fill="#E6E6E6"/>
<path d="M83.5945 179.418L67.6183 179.908L67.6478 180.895L83.624 180.405L83.5945 179.418Z" fill="#E6E6E6"/>
<path d="M187.316 231.205H163.09V219.872H164.064V230.219H187.316V231.205Z" fill="#E6E6E6"/>
<path d="M83.4749 214.699C85.0883 214.699 86.3963 213.374 86.3963 211.739C86.3963 210.104 85.0883 208.778 83.4749 208.778C81.8615 208.778 80.5536 210.104 80.5536 211.739C80.5536 213.374 81.8615 214.699 83.4749 214.699Z" fill="#E6E6E6"/>
<path d="M106.952 223.072H82.7266V211.739H83.7003V222.085H106.952V223.072Z" fill="#E6E6E6"/>
<path d="M181.078 200.474H64.7202V201.461H181.078V200.474Z" fill="#E6E6E6"/>
</g>
<defs>
<clipPath id="clip0_542_80">
<rect width="275" height="222" fill="white" transform="translate(27.9977 61.9994)"/>
</clipPath>
</defs>
</svg>
