<svg width="99" height="29" viewBox="0 0 99 29" fill="none" xmlns="http://www.w3.org/2000/svg">
<path d="M75.4 11.3712L75.4039 23.0075L72.7675 23.0084L68.561 16.8962L68.4928 16.8962L68.4948 23.0098L65.3357 23.0109L65.3319 11.3745L68.0137 11.3736L72.152 17.4632L72.243 17.4631L72.241 11.3722L75.4 11.3712ZM87.7594 15.7307L84.5549 15.7318C84.5321 15.4666 84.4714 15.2261 84.3728 15.0102C84.2781 14.7944 84.1454 14.6088 83.9749 14.4536C83.8082 14.2945 83.6055 14.1734 83.3668 14.0901C83.1282 14.0031 82.8573 13.9596 82.5543 13.9597C82.024 13.9599 81.5752 14.0888 81.2078 14.3465C80.8443 14.6042 80.5679 14.9736 80.3787 15.4547C80.1932 15.9359 80.1006 16.5136 80.1008 17.1878C80.1011 17.8999 80.1959 18.4965 80.3855 18.9775C80.5788 19.4547 80.8574 19.8144 81.2211 20.0567C81.5848 20.2953 82.0223 20.4144 82.5337 20.4143C82.8254 20.4142 83.0867 20.3781 83.3178 20.306C83.5488 20.2302 83.7495 20.1222 83.9199 19.982C84.0903 19.8418 84.2285 19.6732 84.3345 19.4762C84.4443 19.2754 84.5181 19.05 84.5559 18.7999L87.7604 18.8216C87.7227 19.314 87.5846 19.816 87.3462 20.3274C87.1077 20.8351 86.7688 21.3049 86.3296 21.7369C85.8941 22.165 85.3545 22.5099 84.7106 22.7715C84.0668 23.0331 83.3187 23.164 82.4664 23.1643C81.3982 23.1646 80.4398 22.9358 79.5912 22.4777C78.7463 22.0197 78.0776 21.3457 77.5848 20.4557C77.0959 19.5657 76.8512 18.4768 76.8508 17.1889C76.8504 15.8934 77.1 14.8024 77.5997 13.9159C78.0995 13.0256 78.7735 12.353 79.6218 11.8982C80.4701 11.4396 81.417 11.2101 82.4625 11.2097C83.1973 11.2095 83.8735 11.3096 84.491 11.5102C85.1085 11.7107 85.6503 12.0041 86.1163 12.3903C86.5823 12.7728 86.9575 13.2442 87.2418 13.8047C87.526 14.3652 87.6986 15.0072 87.7594 15.7307ZM92.3503 11.3655L92.3542 23.0019L89.1951 23.0029L89.1912 11.3666L92.3503 11.3655ZM97.0066 11.364L97.0104 23.0003L93.8513 23.0014L93.8475 11.365L97.0066 11.364Z" fill="#6C63FF"/>
<path d="M1.17188 23V5.54545H13.7514V9.36364H5.91051V12.3636H13.1037V16.1818H5.91051V19.1818H13.7173V23H1.17188ZM16.1016 23V5.54545H23.6357C24.9311 5.54545 26.0646 5.80114 27.0362 6.3125C28.0078 6.82386 28.7635 7.54261 29.3033 8.46875C29.843 9.39489 30.1129 10.4773 30.1129 11.7159C30.1129 12.9659 29.8345 14.0483 29.2777 14.9631C28.7266 15.8778 27.951 16.5824 26.951 17.0767C25.9567 17.571 24.7947 17.8182 23.4652 17.8182H18.9652V14.1364H22.5107C23.0675 14.1364 23.5419 14.0398 23.9339 13.8466C24.3317 13.6477 24.6357 13.3665 24.8459 13.0028C25.0618 12.6392 25.1697 12.2102 25.1697 11.7159C25.1697 11.2159 25.0618 10.7898 24.8459 10.4375C24.6357 10.0795 24.3317 9.80682 23.9339 9.61932C23.5419 9.42614 23.0675 9.32954 22.5107 9.32954H20.8402V23H16.1016ZM34.206 23H29.0923L34.8537 5.54545H41.331L47.0923 23H41.9787L38.1605 10.3523H38.0241L34.206 23ZM33.2514 16.1136H42.8651V19.6591H33.2514V16.1136ZM57.5028 11C57.4574 10.4318 57.2443 9.98864 56.8636 9.67045C56.4886 9.35227 55.9176 9.19318 55.1506 9.19318C54.6619 9.19318 54.2614 9.25284 53.9489 9.37216C53.642 9.4858 53.4148 9.64205 53.267 9.84091C53.1193 10.0398 53.0426 10.267 53.0369 10.5227C53.0256 10.733 53.0625 10.9233 53.1477 11.0938C53.2386 11.2585 53.3807 11.4091 53.5739 11.5455C53.767 11.6761 54.0142 11.7955 54.3153 11.9034C54.6165 12.0114 54.9744 12.108 55.3892 12.1932L56.821 12.5C57.7869 12.7045 58.6136 12.9744 59.3011 13.3097C59.9886 13.6449 60.5511 14.0398 60.9886 14.4943C61.4261 14.9432 61.7472 15.4489 61.9517 16.0114C62.1619 16.5739 62.2699 17.1875 62.2756 17.8523C62.2699 19 61.983 19.9716 61.4148 20.767C60.8466 21.5625 60.0341 22.1676 58.9773 22.5824C57.9261 22.9972 56.6619 23.2045 55.1847 23.2045C53.6676 23.2045 52.3438 22.9801 51.2131 22.5312C50.0881 22.0824 49.2131 21.392 48.5881 20.4602C47.9688 19.5227 47.6563 18.3239 47.6506 16.8636H52.1506C52.179 17.3977 52.3125 17.8466 52.5511 18.2102C52.7898 18.5739 53.125 18.8494 53.5568 19.0369C53.9943 19.2244 54.5142 19.3182 55.1165 19.3182C55.6222 19.3182 56.0455 19.2557 56.3864 19.1307C56.7273 19.0057 56.9858 18.8324 57.1619 18.6108C57.3381 18.3892 57.429 18.1364 57.4347 17.8523C57.429 17.5852 57.3409 17.3523 57.1705 17.1534C57.0057 16.9489 56.733 16.767 56.3523 16.608C55.9716 16.4432 55.4574 16.2898 54.8097 16.1477L53.071 15.7727C51.5256 15.4375 50.3068 14.8778 49.4148 14.0938C48.5284 13.304 48.0881 12.2273 48.0938 10.8636C48.0881 9.75568 48.3835 8.78693 48.9801 7.95739C49.5824 7.12216 50.4148 6.47159 51.4773 6.00568C52.5455 5.53977 53.7699 5.30682 55.1506 5.30682C56.5597 5.30682 57.7784 5.54261 58.8068 6.0142C59.8352 6.4858 60.6278 7.15057 61.1847 8.00852C61.7472 8.8608 62.0313 9.85795 62.0369 11H57.5028Z" fill="black"/>
</svg>
