<svg width="357" height="208" viewBox="0 0 357 208" fill="none" xmlns="http://www.w3.org/2000/svg">
<path d="M51.9213 139.41C40.1267 136.114 29.3851 129.824 20.7401 121.15C12.0952 112.476 5.8407 101.713 2.58444 89.9078C-0.671801 78.1023 -0.819121 65.6553 2.15678 53.776C5.13269 41.8967 11.1306 30.9892 19.5679 22.113C28.0052 13.2369 38.5948 6.69402 50.3081 3.12006C62.0213 -0.453877 74.4599 -0.937382 86.4152 1.71656C98.3705 4.37051 109.436 10.0716 118.537 18.2661C127.638 26.4605 134.464 36.8696 138.353 48.482L118.156 55.2462C115.434 47.1175 110.655 39.8311 104.284 34.095C97.9139 28.3589 90.1679 24.3681 81.7992 22.5104C73.4305 20.6526 64.7235 20.9911 56.5242 23.4928C48.325 25.9946 40.9122 30.5746 35.0061 36.7879C29.1 43.0012 24.9015 50.6365 22.8183 58.952C20.7352 67.2675 20.8383 75.9804 23.1177 84.2443C25.3971 92.5081 29.7752 100.042 35.8267 106.114C41.8782 112.185 49.3973 116.589 57.6535 118.896L51.9213 139.41Z" fill="#7A39E8"/>
<g clip-path="url(#clip0_132_304)">
<path d="M354.799 207.535H165.481C164.898 207.534 164.339 207.303 163.926 206.892C163.514 206.481 163.282 205.924 163.281 205.343V30.1921C163.282 29.611 163.514 29.0538 163.926 28.6429C164.339 28.232 164.898 28.0008 165.481 28H354.799C355.382 28.0008 355.942 28.232 356.354 28.6429C356.767 29.0538 356.999 29.611 357 30.1921V205.342C356.999 205.924 356.767 206.481 356.354 206.892C355.942 207.303 355.382 207.534 354.799 207.535ZM165.481 28.8751C165.132 28.8759 164.797 29.0146 164.549 29.2609C164.302 29.5071 164.163 29.8409 164.162 30.1892V205.342C164.163 205.691 164.302 206.025 164.549 206.271C164.797 206.517 165.132 206.656 165.481 206.657H354.799C355.149 206.656 355.484 206.517 355.731 206.271C355.978 206.025 356.118 205.691 356.118 205.342V30.1921C356.117 29.8438 355.978 29.51 355.731 29.2637C355.484 29.0175 355.149 28.8788 354.799 28.878L165.481 28.8751Z" fill="#E6E6E6"/>
<path d="M254.937 73.5134C254.541 73.5134 254.161 73.6702 253.881 73.9493C253.601 74.2284 253.443 74.607 253.443 75.0017C253.443 75.3964 253.601 75.7749 253.881 76.054C254.161 76.3331 254.541 76.4899 254.937 76.4899H336.909C337.305 76.4899 337.685 76.3331 337.966 76.054C338.246 75.7749 338.403 75.3964 338.403 75.0017C338.403 74.607 338.246 74.2284 337.966 73.9493C337.685 73.6702 337.305 73.5134 336.909 73.5134H254.937Z" fill="#E6E6E6"/>
<path d="M254.937 82.4437C254.541 82.4437 254.161 82.6005 253.881 82.8796C253.601 83.1587 253.443 83.5373 253.443 83.932C253.443 84.3267 253.601 84.7052 253.881 84.9843C254.161 85.2634 254.541 85.4202 254.937 85.4202H296.786C297.182 85.4202 297.562 85.2634 297.842 84.9843C298.122 84.7052 298.28 84.3267 298.28 83.932C298.28 83.5373 298.122 83.1587 297.842 82.8796C297.562 82.6005 297.182 82.4437 296.786 82.4437H254.937Z" fill="#E6E6E6"/>
<path d="M183.291 125.668C182.895 125.668 182.515 125.824 182.235 126.104C181.955 126.383 181.797 126.761 181.797 127.156C181.797 127.551 181.955 127.929 182.235 128.208C182.515 128.487 182.895 128.644 183.291 128.644H336.989C337.385 128.644 337.765 128.487 338.045 128.208C338.326 127.929 338.483 127.551 338.483 127.156C338.483 126.761 338.326 126.383 338.045 126.104C337.765 125.824 337.385 125.668 336.989 125.668H183.291Z" fill="#E6E6E6"/>
<path d="M183.291 134.598C182.895 134.598 182.515 134.755 182.235 135.034C181.955 135.313 181.797 135.691 181.797 136.086C181.797 136.481 181.955 136.859 182.235 137.138C182.515 137.417 182.895 137.574 183.291 137.574H296.865C297.262 137.574 297.642 137.417 297.922 137.138C298.202 136.859 298.359 136.481 298.359 136.086C298.359 135.691 298.202 135.313 297.922 135.034C297.642 134.755 297.262 134.598 296.865 134.598H183.291Z" fill="#E6E6E6"/>
<path d="M183.291 143.326C182.895 143.326 182.515 143.483 182.235 143.762C181.955 144.041 181.797 144.42 181.797 144.814C181.797 145.209 181.955 145.588 182.235 145.867C182.515 146.146 182.895 146.303 183.291 146.303H336.989C337.385 146.303 337.765 146.146 338.045 145.867C338.326 145.588 338.483 145.209 338.483 144.814C338.483 144.42 338.326 144.041 338.045 143.762C337.765 143.483 337.385 143.326 336.989 143.326H183.291Z" fill="#E6E6E6"/>
<path d="M183.291 152.256C182.895 152.256 182.515 152.413 182.235 152.692C181.955 152.971 181.797 153.35 181.797 153.745C181.797 154.139 181.955 154.518 182.235 154.797C182.515 155.076 182.895 155.233 183.291 155.233H296.865C297.262 155.233 297.642 155.076 297.922 154.797C298.202 154.518 298.359 154.139 298.359 153.745C298.359 153.35 298.202 152.971 297.922 152.692C297.642 152.413 297.262 152.256 296.865 152.256H183.291Z" fill="#E6E6E6"/>
<path d="M234.221 104.869H115.392C114.809 104.869 114.249 104.637 113.837 104.226C113.424 103.815 113.192 103.258 113.192 102.677V50.7254C113.192 50.1442 113.424 49.5871 113.837 49.1761C114.249 48.7651 114.809 48.534 115.392 48.5333H234.221C234.804 48.534 235.364 48.7651 235.776 49.1761C236.189 49.5871 236.421 50.1442 236.421 50.7254V102.677C236.421 103.258 236.189 103.815 235.776 104.226C235.364 104.637 234.804 104.869 234.221 104.869Z" fill="white"/>
<path d="M336.039 187.002H290.997C290.413 187.001 289.854 186.77 289.441 186.359C289.029 185.948 288.797 185.391 288.796 184.81V177.62C288.797 177.039 289.029 176.482 289.441 176.071C289.854 175.66 290.413 175.429 290.997 175.428H336.039C336.622 175.429 337.181 175.66 337.594 176.071C338.006 176.482 338.238 177.039 338.239 177.62V184.81C338.238 185.391 338.006 185.948 337.594 186.359C337.181 186.77 336.622 187.001 336.039 187.002Z" fill="white"/>
<path d="M69.1184 115.927C67.1774 114.483 66.6076 111.786 67.846 109.901C67.9691 109.717 68.1082 109.544 68.2618 109.383L68.3859 71.0032L74.1126 72.0683L74.3642 109.816C75.6688 111.324 75.9323 113.521 74.8755 115.129C73.6372 117.013 71.0596 117.37 69.1184 115.927Z" fill="#FFB8B8"/>
<path d="M98.9001 201.834L104.804 201.833L107.613 179.147L98.8993 179.148L98.9001 201.834Z" fill="#FFB8B8"/>
<path d="M97.3942 199.913L109.021 199.913H109.021C110.986 199.913 112.871 200.691 114.261 202.075C115.65 203.459 116.431 205.337 116.431 207.294V207.534L97.3945 207.535L97.3942 199.913Z" fill="#2F2E41"/>
<path d="M44.0022 201.834L49.9064 201.833L52.7148 179.147L44.0013 179.148L44.0022 201.834Z" fill="#FFB8B8"/>
<path d="M42.4965 199.913L54.1232 199.913H54.1237C56.0888 199.913 57.9733 200.691 59.3629 202.075C60.7524 203.459 61.5331 205.337 61.5332 207.294V207.534L42.4968 207.535L42.4965 199.913Z" fill="#2F2E41"/>
<path d="M98.5555 195.497L98.0606 192.54C97.5524 192.363 97.1204 192.017 96.8369 191.561C96.3055 190.725 96.2209 189.548 96.5851 188.062L92.6017 154.549L71.805 133.053L58.4635 165.111L53.1821 190.48V194.145L42.6373 195.494L43.1172 192.039C42.7138 191.867 42.3777 191.569 42.1597 191.189C41.5539 190.185 41.5622 188.628 42.1843 186.562L42.2112 186.472L42.1768 186.164C42.1527 185.948 42.3112 165.226 48.4945 154.96L54.6871 123.789C54.5263 123.35 53.7323 120.795 55.1884 116.476C56.6254 112.214 60.6444 105.348 71.6303 96.8415L71.668 96.8125L71.7148 96.8026C71.8365 96.7776 83.9533 94.3778 90.2198 102.541L90.2621 102.597V102.666C90.2621 103.171 90.2512 114.916 89.319 117.522L104.189 144.761C104.478 145.066 107.078 148.057 106.155 155.92L108.557 182.723C108.832 183.246 111.318 188.169 108.578 190.118L109.069 193.502L98.5555 195.497Z" fill="#2F2E41"/>
<path d="M73.6797 82.8643C70.8877 82.8643 67.1774 81.8812 64.9061 77.3497L64.8615 77.2606L70.4569 65.4443C71.1818 63.9134 72.4794 62.7259 74.0719 62.136C75.6645 61.546 77.4255 61.6004 78.9783 62.2875C80.5311 62.9746 81.7523 64.2399 82.3807 65.8126C83.009 67.3853 82.9945 69.1405 82.3404 70.7027L77.5028 82.2559L77.4186 82.287C76.2104 82.6736 74.9487 82.8684 73.6797 82.8643Z" fill="white"/>
<path d="M89.1793 106.292L71.5397 97.9937L73.9644 68.5239L78.3848 63.1416L79.2412 62.9589C83.1766 62.1195 87.2659 62.3452 91.0843 63.6124L91.1682 63.6403L98.4292 79.0716C98.4747 79.1486 103.711 88.3586 96.4723 93.2144L89.1793 106.292Z" fill="white"/>
<path d="M113.43 96.9002C113.219 96.9876 113.016 97.0914 112.822 97.2106L94.2339 88.7401L93.7571 83.816L86.2036 83.5616L86.1974 92.3605C86.1969 93.0713 86.4278 93.7631 86.8556 94.3321C87.2834 94.901 87.8848 95.3163 88.5697 95.5157L110.891 102.014C111.12 102.859 111.602 103.615 112.273 104.18C112.943 104.745 113.771 105.094 114.645 105.179C115.52 105.265 116.399 105.083 117.167 104.658C117.936 104.233 118.556 103.585 118.945 102.801C119.335 102.016 119.475 101.132 119.348 100.266C119.221 99.3999 118.832 98.593 118.233 97.9524C117.635 97.3119 116.854 96.8681 115.996 96.6802C115.138 96.4922 114.243 96.569 113.43 96.9002Z" fill="#FFB8B8"/>
<path d="M90.6936 85.9174C88.5755 85.9174 86.1852 85.1877 83.8908 82.902L83.8201 82.8316L85.3704 69.8581C85.5712 68.1773 86.4244 66.6415 87.7474 65.5793C89.0704 64.5172 90.7581 64.0131 92.4494 64.1748C94.1407 64.3365 95.7014 65.1513 96.7974 66.4448C97.8934 67.7383 98.4377 69.4077 98.3139 71.0959L97.3988 83.5806L97.3287 83.6365C97.2838 83.6724 94.4079 85.9174 90.6936 85.9174Z" fill="white"/>
<path d="M96.3618 52.8756C99.495 47.1656 97.3886 40.0062 91.6569 36.8848C85.9252 33.7634 78.7387 35.8619 75.6055 41.572C72.4722 47.2821 74.5787 54.4414 80.3104 57.5628C86.0421 60.6842 93.2286 58.5857 96.3618 52.8756Z" fill="#FFB8B8"/>
<path d="M98.021 40.9807C97.4341 37.58 94.6939 34.7609 91.4296 33.6075C88.165 32.454 84.4839 32.8291 81.2872 34.1574C80.7548 34.3796 80.2343 34.6289 79.7277 34.9044C78.5592 32.6857 75.6947 31.3988 73.0746 31.5377C69.9093 31.7055 67.0508 33.374 64.3017 34.9465C61.5527 36.519 58.6027 38.0835 55.4336 38.0103C49.7067 37.878 45.446 32.5885 39.939 31.0166C37.4875 30.3168 34.879 30.3876 32.4694 31.2193C30.0598 32.0509 27.9664 33.603 26.4749 35.6637C24.9834 37.7243 24.1664 40.1933 24.1353 42.7336C24.1043 45.2739 24.8607 47.7619 26.3014 49.8582C28.6512 45.6632 34.1692 44.2463 38.9572 44.8174C43.745 45.3885 48.2073 47.4793 52.8979 48.593C57.5887 49.7067 63.0212 49.6589 66.6545 46.5005C68.7155 44.7091 69.9256 42.1485 71.7198 40.0919C72.9335 38.7008 74.6613 37.5261 76.4267 37.2497C74.6878 38.8097 73.3603 40.7714 72.5608 42.9624C71.1452 46.9692 71.902 51.7801 74.8386 54.8598C77.9868 58.1615 82.928 59.0415 87.4988 58.9881L87.5944 58.8912C86.1949 56.8044 85.0905 53.9107 86.6313 51.9251C88.1524 49.9651 91.1522 50.2539 93.4816 49.3866C96.726 48.1786 98.6077 44.3814 98.021 40.9807Z" fill="#2F2E41"/>
<path d="M129.947 208H17.4117C17.3024 208 17.1976 207.957 17.1202 207.88C17.0429 207.803 16.9995 207.698 16.9995 207.589C16.9995 207.48 17.0429 207.376 17.1202 207.299C17.1976 207.222 17.3024 207.179 17.4117 207.179H129.947C130.056 207.179 130.161 207.222 130.239 207.299C130.316 207.376 130.359 207.48 130.359 207.589C130.359 207.698 130.316 207.803 130.239 207.88C130.161 207.957 130.056 208 129.947 208Z" fill="#CCCCCC"/>
<path d="M169.475 66.7542C168.958 66.7558 168.541 67.4234 168.542 68.2453C168.543 69.065 168.96 69.729 169.475 69.7306H213.528C214.044 69.729 214.462 69.0614 214.461 68.2394C214.46 67.4198 214.043 66.7558 213.528 66.7542H169.475Z" fill="white"/>
<path d="M169.475 75.3781C168.958 75.3797 168.541 76.0473 168.542 76.8692C168.543 77.6889 168.96 78.3529 169.475 78.3545H213.528C214.044 78.3529 214.462 77.6853 214.461 76.8633C214.46 76.0437 214.043 75.3797 213.528 75.3781H169.475Z" fill="white"/>
<path d="M169.475 83.8977C168.958 83.8993 168.541 84.567 168.542 85.3889C168.543 86.2085 168.96 86.8726 169.475 86.8742H188.431C188.947 86.8725 189.364 86.2049 189.363 85.383C189.362 84.5634 188.945 83.8993 188.431 83.8977H169.475Z" fill="white"/>
<path d="M147.107 88.6104C153.709 88.6104 159.061 83.2785 159.061 76.7012C159.061 70.1239 153.709 64.792 147.107 64.792C140.504 64.792 135.152 70.1239 135.152 76.7012C135.152 83.2785 140.504 88.6104 147.107 88.6104Z" fill="white"/>
</g>
<defs>
<clipPath id="clip0_132_304">
<rect width="340" height="180" fill="white" transform="translate(16.9995 28)"/>
</clipPath>
</defs>
</svg>
